<svg width="24" height="24" viewBox="0 0 24 24" fill="none" xmlns="http://www.w3.org/2000/svg">
<g clip-path="url(#clip0_322_2604)">
<path d="M5.37866 6.72961H9.04492V8.26895H5.37866V6.72961Z" fill="#8395A9"/>
<path d="M5.37866 10.23H9.04492V11.7693H5.37866V10.23Z" fill="#8395A9"/>
<path d="M5.37866 13.7303H9.04492V15.2696H5.37866V13.7303Z" fill="#8395A9"/>
<path d="M5.37866 17.2307H9.04492V18.77H5.37866V17.2307Z" fill="#8395A9"/>
<path d="M12.7928 20.8197V8.24187L20.8308 8.23249V16.7176H22.3692V7.46192C22.3692 7.04202 22.0184 6.69223 21.5991 6.69223L12.0227 6.70341C11.5982 6.70392 11.2544 7.04833 11.2544 7.4731V20.8197H3.16923V5.5891L11.2544 3.41407V5.16151H12.7928V2.41013C12.7928 1.91218 12.3051 1.53741 11.8238 1.66684L2.20026 4.25572C1.86431 4.34613 1.63077 4.6509 1.63077 4.999V20.8197H0V22.359H24V20.8197H12.7928Z" fill="#8395A9"/>
<path d="M20.8307 18.103H22.3692V19.5369H20.8307V18.103Z" fill="#8395A9"/>
<path d="M14.9551 10.23H18.6213V11.7693H14.9551V10.23Z" fill="#8395A9"/>
<path d="M14.9551 13.7303H18.6213V15.2696H14.9551V13.7303Z" fill="#8395A9"/>
<path d="M14.9551 17.2307H18.6213V18.77H14.9551V17.2307Z" fill="#8395A9"/>
</g>
<defs>
<clipPath id="clip0_322_2604">
<rect width="24" height="24" fill="white"/>
</clipPath>
</defs>
</svg>
