<svg width="24" height="24" viewBox="0 0 24 24" fill="none" xmlns="http://www.w3.org/2000/svg">
<path d="M14.2812 5.5625H7.15625C6.8285 5.5625 6.5625 5.8285 6.5625 6.15625C6.5625 6.484 6.8285 6.75 7.15625 6.75H14.2812C14.609 6.75 14.875 6.484 14.875 6.15625C14.875 5.8285 14.609 5.5625 14.2812 5.5625Z" fill="#8395A9"/>
<path d="M11.9062 7.9375H7.15625C6.8285 7.9375 6.5625 8.2035 6.5625 8.53125C6.5625 8.859 6.8285 9.125 7.15625 9.125H11.9062C12.234 9.125 12.5 8.859 12.5 8.53125C12.5 8.2035 12.234 7.9375 11.9062 7.9375Z" fill="#8395A9"/>
<path d="M16.0625 2H5.375C4.06519 2 3 3.06519 3 4.375V16.25C3 16.4804 3.133 16.6906 3.342 16.7879C3.42156 16.8248 3.50825 16.8438 3.59375 16.8438C3.73031 16.8438 3.86569 16.7962 3.97375 16.706L7.37119 13.875H16.0625C17.3723 13.875 18.4375 12.8098 18.4375 11.5V4.375C18.4375 3.06519 17.3723 2 16.0625 2ZM17.25 11.5C17.25 12.1543 16.718 12.6875 16.0625 12.6875H7.15625C7.01731 12.6875 6.88313 12.7362 6.77625 12.8253L4.1875 14.9829V4.375C4.1875 3.72069 4.7195 3.1875 5.375 3.1875H16.0625C16.718 3.1875 17.25 3.72069 17.25 4.375V11.5Z" fill="#8395A9" stroke="#8395A9" stroke-width="0.5"/>
<path d="M19.625 6.75C19.2973 6.75 19.0312 7.016 19.0312 7.34375C19.0312 7.6715 19.2973 7.9375 19.625 7.9375C20.2805 7.9375 20.8125 8.47069 20.8125 9.125V19.1701L18.808 17.5669C18.7035 17.4838 18.5717 17.4375 18.4375 17.4375H10.125C9.4695 17.4375 8.9375 16.9043 8.9375 16.25V15.6562C8.9375 15.3285 8.6715 15.0625 8.34375 15.0625C8.016 15.0625 7.75 15.3285 7.75 15.6562V16.25C7.75 17.5598 8.81519 18.625 10.125 18.625H18.2285L21.0346 20.8706C21.1426 20.9561 21.2744 21 21.4062 21C21.4929 21 21.5808 20.981 21.6639 20.9418C21.8694 20.8421 22 20.6343 22 20.4062V9.125C22 7.81519 20.9348 6.75 19.625 6.75Z" fill="#8395A9" stroke="#8395A9" stroke-width="0.5"/>
</svg>
