<svg width="24" height="24" viewBox="0 0 24 24" fill="none" xmlns="http://www.w3.org/2000/svg">
<path fill-rule="evenodd" clip-rule="evenodd" d="M8 4.5H6C5.17157 4.5 4.5 5.17157 4.5 6V8C4.5 8.82843 5.17157 9.5 6 9.5H8C8.82843 9.5 9.5 8.82843 9.5 8V6C9.5 5.17157 8.82843 4.5 8 4.5ZM6 3C4.34315 3 3 4.34315 3 6V8C3 9.65685 4.34315 11 6 11H8C9.65685 11 11 9.65685 11 8V6C11 4.34315 9.65685 3 8 3H6Z" fill="#8395A9" stroke="#8395A9" stroke-width="0.3"/>
<path fill-rule="evenodd" clip-rule="evenodd" d="M8 14.5H6C5.17157 14.5 4.5 15.1716 4.5 16V18C4.5 18.8284 5.17157 19.5 6 19.5H8C8.82843 19.5 9.5 18.8284 9.5 18V16C9.5 15.1716 8.82843 14.5 8 14.5ZM6 13C4.34315 13 3 14.3431 3 16V18C3 19.6569 4.34315 21 6 21H8C9.65685 21 11 19.6569 11 18V16C11 14.3431 9.65685 13 8 13H6Z" fill="#8395A9" stroke="#8395A9" stroke-width="0.3"/>
<path fill-rule="evenodd" clip-rule="evenodd" d="M17.9999 4.5H15.9999C15.1715 4.5 14.4999 5.17157 14.4999 6V8C14.4999 8.82843 15.1715 9.5 15.9999 9.5H17.9999C18.8284 9.5 19.4999 8.82843 19.4999 8V6C19.4999 5.17157 18.8284 4.5 17.9999 4.5ZM15.9999 3C14.3431 3 12.9999 4.34315 12.9999 6V8C12.9999 9.65685 14.3431 11 15.9999 11H17.9999C19.6568 11 20.9999 9.65685 20.9999 8V6C20.9999 4.34315 19.6568 3 17.9999 3H15.9999Z" fill="#8395A9" stroke="#8395A9" stroke-width="0.3"/>
<path fill-rule="evenodd" clip-rule="evenodd" d="M17.9999 14.5H15.9999C15.1715 14.5 14.4999 15.1716 14.4999 16V18C14.4999 18.8284 15.1715 19.5 15.9999 19.5H17.9999C18.8284 19.5 19.4999 18.8284 19.4999 18V16C19.4999 15.1716 18.8284 14.5 17.9999 14.5ZM15.9999 13C14.3431 13 12.9999 14.3431 12.9999 16V18C12.9999 19.6569 14.3431 21 15.9999 21H17.9999C19.6568 21 20.9999 19.6569 20.9999 18V16C20.9999 14.3431 19.6568 13 17.9999 13H15.9999Z" fill="#8395A9" stroke="#8395A9" stroke-width="0.3"/>
</svg>
