<svg width="24" height="24" viewBox="0 0 24 24" fill="none" xmlns="http://www.w3.org/2000/svg">
<path d="M19.7502 2.16239C19.2788 1.6748 18.652 1.40625 17.9851 1.40625H16.8585V1.17188C16.8585 0.525703 16.3492 0 15.7233 0H7.54944C6.92346 0 6.41419 0.525703 6.41419 1.17188V1.40625H5.28361C3.90945 1.40625 2.79023 2.56153 2.78868 3.98152L2.77002 21.419C2.76929 22.1082 3.02845 22.7563 3.49976 23.2439C3.97112 23.7315 4.59801 24 5.26495 24H17.9663C19.3406 24 20.4598 22.8447 20.4613 21.4247L20.48 3.98723C20.4808 3.29803 20.2216 2.64994 19.7502 2.16239ZM7.77649 1.40625H15.4962V2.8125H7.77649V1.40625ZM19.1004 21.4231C19.0997 22.0687 18.591 22.5938 17.9663 22.5938H5.26495C4.96179 22.5938 4.67684 22.4717 4.46259 22.2501C4.24835 22.0284 4.13056 21.7338 4.13087 21.4206L4.14954 3.98311C4.15022 3.33759 4.65895 2.8125 5.28361 2.8125H6.41419V3.04688C6.41419 3.69305 6.92346 4.21875 7.54944 4.21875H15.7233C16.3492 4.21875 16.8585 3.69305 16.8585 3.04688V2.8125H17.9851C18.2882 2.8125 18.5732 2.93456 18.7874 3.15619C19.0017 3.37781 19.1195 3.67242 19.1191 3.98564L19.1004 21.4231Z" fill="#8395A9"/>
<path d="M11.8565 9.375H16.6959C17.0721 9.375 17.3771 9.06019 17.3771 8.67188C17.3771 8.28356 17.0721 7.96875 16.6959 7.96875H11.8565C11.4803 7.96875 11.1754 8.28356 11.1754 8.67188C11.1754 9.06019 11.4803 9.375 11.8565 9.375Z" fill="#8395A9"/>
<path d="M11.8565 14.0625H16.6959C17.0721 14.0625 17.3771 13.7477 17.3771 13.3594C17.3771 12.9711 17.0721 12.6562 16.6959 12.6562H11.8565C11.4803 12.6562 11.1754 12.9711 11.1754 13.3594C11.1754 13.7477 11.4803 14.0625 11.8565 14.0625Z" fill="#8395A9"/>
<path d="M16.7154 17.3438H11.8565C11.4803 17.3438 11.1754 17.6586 11.1754 18.0469C11.1754 18.4352 11.4803 18.75 11.8565 18.75H16.7154C17.0916 18.75 17.3965 18.4352 17.3965 18.0469C17.3965 17.6586 17.0916 17.3438 16.7154 17.3438Z" fill="#8395A9"/>
<path d="M8.95744 6.75733L7.38662 8.37883L7.01625 7.99647C6.75024 7.72188 6.31898 7.72188 6.05296 7.99647C5.78695 8.27102 5.78695 8.71624 6.05296 8.99083L6.90499 9.87039C7.03273 10.0023 7.20597 10.0764 7.38666 10.0764C7.5673 10.0764 7.74054 10.0023 7.86828 9.87039L9.92077 7.75174C10.1868 7.47719 10.1868 7.03197 9.92077 6.75738C9.65476 6.48274 9.2235 6.48274 8.95744 6.75733Z" fill="#8395A9"/>
<path d="M8.95744 11.8029L7.38662 13.4244L7.01625 13.0421C6.75024 12.7675 6.31898 12.7675 6.05296 13.0421C5.78695 13.3166 5.78695 13.7618 6.05296 14.0364L6.90499 14.916C7.03273 15.0479 7.20597 15.122 7.38666 15.122C7.5673 15.122 7.74059 15.0479 7.86828 14.916L9.92077 12.7973C10.1868 12.5227 10.1868 12.0775 9.92077 11.8029C9.65476 11.5283 9.22346 11.5283 8.95744 11.8029Z" fill="#8395A9"/>
<path d="M8.95744 16.4904L7.38662 18.1119L7.01625 17.7296C6.75024 17.455 6.31898 17.455 6.05296 17.7296C5.78695 18.0041 5.78695 18.4493 6.05296 18.7239L6.90499 19.6035C7.03273 19.7354 7.20597 19.8095 7.38666 19.8095C7.5673 19.8095 7.74059 19.7354 7.86828 19.6035L9.92077 17.4848C10.1868 17.2102 10.1868 16.765 9.92077 16.4904C9.65476 16.2158 9.22346 16.2158 8.95744 16.4904Z" fill="#8395A9"/>
</svg>
